<svg width="24" height="24" viewBox="0 0 24 24" fill="none" xmlns="http://www.w3.org/2000/svg">
<path d="M19.2 4.02273H18.3V2.25H16.5V4.02273H7.5V2.25H5.7V4.02273H4.8C3.81 4.02273 3 4.82045 3 5.79545V19.9773C3 20.9523 3.81 21.75 4.8 21.75H19.2C20.19 21.75 21 20.9523 21 19.9773V5.79545C21 4.82045 20.19 4.02273 19.2 4.02273ZM19.2 19.9773H4.8V10.2273H19.2V19.9773ZM19.2 8.45455H4.8V5.79545H19.2V8.45455Z" fill="#9E9E9E"/>
<path fill-rule="evenodd" clip-rule="evenodd" d="M17.25 14.25H6.75V12.375H17.25V14.25Z" fill="#9E9E9E"/>
<path fill-rule="evenodd" clip-rule="evenodd" d="M17.25 18H6.75V16.125H17.25V18Z" fill="#9E9E9E"/>
</svg>
