<svg width="23" height="23" viewBox="0 0 23 23" fill="none" xmlns="http://www.w3.org/2000/svg">
<g clip-path="url(#clip0_101_7535)">
<path d="M11.077 21.1538C12.0924 21.1538 12.9232 20.323 12.9232 19.3077H9.23084C9.23084 20.323 10.0616 21.1538 11.077 21.1538ZM16.6155 15.6153V11C16.6155 8.16612 15.1108 5.79381 12.4616 5.16612V4.53842C12.4616 3.77227 11.8432 3.15381 11.077 3.15381C10.3108 3.15381 9.69238 3.77227 9.69238 4.53842V5.16612C7.05238 5.79381 5.53854 8.15689 5.53854 11V15.6153L3.69238 17.4615V18.3846H18.4616V17.4615L16.6155 15.6153ZM14.7693 16.5384H7.38469V11C7.38469 8.71073 8.77854 6.84612 11.077 6.84612C13.3755 6.84612 14.7693 8.71073 14.7693 11V16.5384Z" fill="#9E9E9E"/>
</g>
<defs>
<clipPath id="clip0_101_7535">
<rect width="22.1538" height="22.1538" fill="white" transform="translate(0 0.846191)"/>
</clipPath>
</defs>
</svg>
