<?xml version="1.0" encoding="UTF-8"?>
<svg width="670px" height="455px" viewBox="0 0 670 455" version="1.1" xmlns="http://www.w3.org/2000/svg" xmlns:xlink="http://www.w3.org/1999/xlink">
    <title>Phone Illustration</title>
    <g id="Page-1" stroke="none" stroke-width="1" fill="none" fill-rule="evenodd">
        <g id="1.3-Onbording" transform="translate(-37.000000, -205.000000)">
            <g id="Phone-Illustration" transform="translate(37.000000, 209.000000)">
                <path d="M594.993551,74 C611.399934,74 624.730999,87.160601 624.99598,103.503788 L625,104 C625,120.568542 611.571821,134 594.993551,134 L568.493968,134 C551.938997,134 538.5,147.431458 538.5,164 C538.5,180.572185 551.928757,194 568.493968,194 L639.998123,194 C656.402007,194 669.73104,207.160601 669.995981,223.503788 L670,224 C670,240.568542 656.570157,254 639.998123,254 L571,254 L571.000691,254.264689 C569.850899,254.111424 568.680515,254.023259 567.493371,254.004018 L566.99722,254 L492.00278,254 C475.437867,254 462,267.431458 462,284 C462,300.572185 475.432702,314 492.00278,314 L566.99722,314 C568.354575,314 569.690933,313.909816 571.000622,313.735111 L571,314 L592.998123,314 C609.402007,314 622.73104,327.160601 622.995981,343.503788 L623,344 C623,360.568542 609.570157,374 592.998123,374 L533.00595,374 C549.405554,374 562.73111,387.160601 562.995982,403.503788 L563,404 C563,420.568542 549.576215,434 533.00595,434 L74.9940497,434 C58.4287935,434 45,420.572185 45,404 C45,387.431458 58.4237852,374 74.9940497,374 L93.0018766,374 C76.4322977,374 63,360.572185 63,344 C63,327.431458 76.4298433,314 93.0018766,314 L30.0018766,314 C13.4322977,314 0,300.572185 0,284 C0,267.431458 13.4298433,254 30.0018766,254 L122.99563,254 C139.568478,254 153,240.568542 153,224 L152.99598,223.503788 C152.731018,207.160601 139.400876,194 122.99563,194 L107.001877,194 C90.4322977,194 77,180.572185 77,164 C77,147.431458 90.4298433,134 107.001877,134 L58.0018766,134 C41.4322977,134 28,120.572185 28,104 C28,87.4314575 41.4298433,74 58.0018766,74 L594.993551,74 Z M634.995202,14 C651.400683,14 664.731014,27.160601 664.99598,43.503788 L665,44 C665,60.5685425 651.5598,74 634.995202,74 L109.254798,74 C92.6836055,74 79.25,60.5721855 79.25,44 C79.25,27.4314575 92.6901997,14 109.254798,14 L634.995202,14 Z" id="Combined-Shape" fill="#F6F9FC" opacity="0.835389459"></path>
                <g transform="translate(466.500000, 275.500000) rotate(-360.000000) translate(-466.500000, -275.500000) translate(364.000000, 162.000000)">
                    <path d="M6.35319317,91.1147143 C6.35319317,91.1147143 -2.55569558,79.9819536 16.1600386,66.7082027 C34.8757728,53.4344518 55.9462656,66.7082025 55.9462656,66.7082025" id="Path-5" stroke="#6E7585" stroke-width="6" stroke-linecap="round" stroke-linejoin="round" transform="translate(30.090188, 75.961736) rotate(-148.000000) translate(-30.090188, -75.961736) "></path>
                    <path d="M56.3779792,20.3788299 C56.3779792,13.7470575 61.5859996,7.05377515 68.0501472,5.60097741 C68.0501472,5.60097741 86.4545216,-1.52263908e-11 116.531064,-1.52340363e-11 C146.607606,-1.52401134e-11 165.011981,5.60097741 165.011981,5.60097741 C171.458341,7.13078752 176.684149,13.7413664 176.684149,20.3788299 L176.684149,207.729384 C176.684149,214.361157 171.398512,220.739013 164.874613,221.836551 C164.874613,221.836551 146.607606,226.015478 116.531064,226.015478 C86.4545216,226.015478 68.1875153,221.836551 68.1875153,221.836551 C61.6652886,220.677151 56.3779792,214.366848 56.3779792,207.729384 L56.3779792,20.3788299 Z" id="Rectangle-9" fill="#F6F9FC"></path>
                    <path d="M67.6888156,29.4576611 C67.6888156,26.8059061 69.8429412,24.656234 72.4830645,24.656234 L160.579064,24.656234 C163.226854,24.656234 165.373312,26.8060939 165.373312,29.4576611 L165.373312,186.284386 C165.373312,188.936141 163.219187,191.085813 160.579064,191.085813 L72.4830645,191.085813 C69.835274,191.085813 67.6888156,188.935954 67.6888156,186.284386 L67.6888156,29.4576611 Z" id="Rectangle-9" fill="#FFFFFF"></path>
                    <path d="M83.9013078,224.262339 C73.7911642,223.118493 68.1813016,221.890471 68.1813016,221.890471 C61.6625066,220.701291 56.3779792,214.366411 56.3779792,207.72922 L56.3779792,151.472546 L56.3779792,151.472546 M56.3779792,140.339067 L56.3779792,134.048089 M56.3779792,112.350029 L56.3779792,20.3697016 C56.3779792,13.7429705 61.5859996,7.05377515 68.0501472,5.60097741 C68.0501472,5.60097741 86.4545216,-1.52263908e-11 116.531064,-1.52340363e-11 C126.631153,-1.5236077e-11 135.414969,0.631623728 142.627565,1.47065646 M151.86891,2.7702205 C160.344341,4.18048121 165.011981,5.60097741 165.011981,5.60097741 C171.458341,7.13078752 176.684149,13.7413664 176.684149,20.3788299 L176.684149,207.729384 C176.684149,214.361157 171.398512,220.739013 164.874613,221.836551 C164.874613,221.836551 146.607606,226.015478 116.531064,226.015478 C110.591134,226.015478 105.11182,225.852484 100.142865,225.590877" id="Rectangle-9" stroke="#7C8495" stroke-width="4" stroke-linecap="round" stroke-linejoin="round"></path>
                    <path d="M165.373312,149.342565 L165.373312,186.27696 C165.373312,188.932816 163.219187,191.085813 160.579064,191.085813 L72.4830645,191.085813 C69.835274,191.085813 67.6888156,188.935954 67.6888156,186.284386 L67.6888156,29.4576611 L67.6888156,29.4576611 C67.6888156,26.8059061 69.8429412,24.656234 72.4830645,24.656234 L160.579064,24.656234 C163.226854,24.656234 165.373312,26.8058226 165.373312,29.4652172 L165.373312,134.113316" id="Rectangle-9" stroke="#7C8495" stroke-width="4" stroke-linecap="round" stroke-linejoin="round"></path>
                    <path d="M131.738339,123.00857 L125.153032,141.74616 L118.567724,123.00857 C118.553516,122.958887 118.532204,122.909204 118.503789,122.838228 C118.461165,122.753058 118.446958,122.71757 118.418542,122.646594 C118.304879,122.433666 118.162803,122.242033 117.992308,122.071691 C117.807606,121.887153 117.601596,121.738105 117.37427,121.624544 C117.289023,121.560665 117.253504,121.553568 117.182465,121.539373 C117.125633,121.510982 117.08301,121.48969 117.054595,121.475495 C116.898309,121.418714 116.841478,121.404519 116.798855,121.390324 C116.642569,121.354836 116.592842,121.347738 116.564426,121.347738 C116.401036,121.333543 116.35131,121.326446 116.308686,121.326446 L116.074258,121.326446 C115.89666,121.340641 115.51305,121.418714 115.456219,121.432909 C115.335453,121.475495 115.29283,121.48969 115.221791,121.51808 C115.12944,121.560665 115.108129,121.57486 115.051297,121.603251 C114.809764,121.731008 114.596649,121.887153 114.411947,122.071691 C114.241453,122.242033 114.099376,122.440763 113.985713,122.667887 C113.957298,122.724668 113.850739,122.958887 113.836532,122.987277 L107.251224,141.74616 L100.665916,123.00857 C100.424382,122.35559 99.9910493,121.87296 99.3659037,121.560665 C98.740758,121.262566 98.1014142,121.227078 97.4478528,121.454202 C96.7942915,121.69552 96.3183355,122.128468 96.0199705,122.753058 C95.7216056,123.377647 95.6860865,124.016422 95.9134122,124.669402 L104.864316,150.156783 C104.914043,150.277443 104.956666,150.383905 105.013498,150.497467 C105.112953,150.660711 105.176887,150.752979 105.247926,150.83815 C105.340277,150.965907 105.411315,151.04398 105.482355,151.114956 C105.610225,151.228517 105.695471,151.299492 105.780718,151.370468 C105.9299,151.469834 106.015146,151.519517 106.100393,151.562103 C106.242472,151.625981 106.334821,151.661469 106.420068,151.689859 C106.526627,151.739542 106.626081,151.760835 106.739744,151.77503 C106.974173,151.824713 107.109145,151.838908 107.251224,151.838908 C107.379094,151.838908 107.506963,151.824713 107.634834,151.796323 C107.855055,151.760835 107.954509,151.739542 108.039756,151.711152 C108.153418,151.661469 108.238664,151.625981 108.338119,151.583395 C108.46599,151.519517 108.551236,151.469834 108.636483,151.413054 C108.799873,151.299492 108.885119,151.228517 108.956158,151.157541 C109.06982,151.04398 109.140859,150.973005 109.211898,150.902028 C109.311353,150.752979 109.368183,150.660711 109.425015,150.561345 C109.524469,150.383905 109.574196,150.277443 109.61682,150.178076 C109.61682,150.163881 116.202128,131.419193 116.202128,131.419193 L122.787436,150.156783 C122.830059,150.277443 122.879786,150.383905 122.936617,150.497467 C123.036072,150.660711 123.092903,150.752979 123.149734,150.83815 C123.249189,150.965907 123.313123,151.04398 123.384162,151.114956 C123.519137,151.228517 123.604383,151.299492 123.703838,151.370468 C123.831708,151.469834 123.916954,151.519517 124.002201,151.562103 C124.151383,151.625981 124.236629,151.661469 124.321876,151.689859 C124.435539,151.739542 124.527888,151.760835 124.641551,151.77503 C124.890188,151.824713 125.025161,151.838908 125.153032,151.838908 C125.280902,151.838908 125.415875,151.824713 125.557953,151.796323 C125.778175,151.760835 125.877628,151.739542 125.962875,151.711152 C126.069434,151.661469 126.161784,151.625981 126.261239,151.583395 C126.389109,151.519517 126.474355,151.469834 126.559602,151.413054 C126.708784,151.299492 126.79403,151.228517 126.879277,151.157541 C126.99294,151.04398 127.056874,150.973005 127.113706,150.902028 C127.227368,150.752979 127.291303,150.660711 127.348134,150.561345 C127.447589,150.383905 127.490212,150.277443 127.518628,150.178076 L136.490843,124.669402 C136.718169,124.016422 136.68265,123.377647 136.384285,122.753058 C136.08592,122.128468 135.609964,121.69552 134.956402,121.454202 C134.288633,121.227078 133.642186,121.262566 133.01704,121.560665 C132.391894,121.87296 131.965665,122.35559 131.738339,123.00857 Z" id="W" stroke="#15B4F1" stroke-width="3.6" fill="#15B4F1" opacity="0.5"></path>
                    <path d="M95.7305705,59.1028189 C95.7305705,59.1028189 96.154987,54.7738315 99.6153719,54.0498406 C103.075757,53.3258497 104.984891,57.5346381 104.984891,57.5346381" id="Path-8" stroke="#7C8495" stroke-width="4.8" stroke-linecap="round" stroke-linejoin="round" transform="translate(100.357731, 56.534461) rotate(7.000000) translate(-100.357731, -56.534461) "></path>
                    <path d="M127.606564,59.1028189 C127.606564,59.1028189 128.030981,54.7738315 131.491366,54.0498406 C133.175603,53.69746 134.492355,54.513635 135.400357,55.4443253 C136.357911,56.4258043 136.860885,57.5346381 136.860885,57.5346381" id="Path-8" stroke="#7C8495" stroke-width="4.8" stroke-linecap="round" stroke-linejoin="round" transform="translate(132.233725, 56.534461) rotate(7.000000) translate(-132.233725, -56.534461) "></path>
                    <path d="M101.621325,13.7387072 C101.621325,12.3922738 102.700233,11.1643507 104.036319,11.0118676 C104.036319,11.0118676 109.076195,10.2734308 116.531064,10.2734308 C123.985933,10.2734308 129.025809,11.0118676 129.025809,11.0118676 C130.359573,11.1714262 131.440803,12.3804631 131.440803,13.7387072 L131.440803,12.972213 C131.440803,14.3186463 130.361895,15.273723 129.025809,15.12124 C129.025809,15.12124 123.985933,14.3828032 116.531064,14.3828032 C109.076195,14.3828032 104.036319,15.12124 104.036319,15.12124 C102.702555,15.2807985 101.621325,14.330457 101.621325,12.972213 L101.621325,13.7387072 Z" id="Rectangle-10" fill="#E1EBF7"></path>
                    <ellipse id="Oval" fill="#E1EBF7" cx="117.045193" cy="208.550646" rx="9.25432075" ry="9.24608775"></ellipse>
                    <path d="M189.817753,82.6670611 C189.817753,82.6670611 189.817752,57.5787953 169.309581,57.5787953 C148.801411,57.5787953 157.08617,113.694102 157.08617,113.694102" id="Path-5" stroke="#6E7585" stroke-width="6" stroke-linecap="round" stroke-linejoin="round" transform="translate(172.624697, 85.636449) scale(1, -1) rotate(76.000000) translate(-172.624697, -85.636449) "></path>
                    <path d="M105.717137,84.0096008 C104.41366,86.8490396 108.467191,87.3094572 113.533026,86.7201473 C118.598861,86.1308374 123.922596,87.1734497 122.508126,84.0096009 C121.093656,80.845752 107.020614,81.170162 105.717137,84.0096008 Z" id="Path-10" fill="#7C8495" transform="translate(114.105224, 84.350726) rotate(-173.000000) translate(-114.105224, -84.350726) "></path>
                </g>
                <g id="Elephant" transform="translate(145.000000, 69.000000)">
                    <path d="M26.1966706,222.249621 C26.1966706,222.249621 14.8609842,223.602148 17.3337182,214.512225 C18.8990555,208.756061 25.199712,209.805528 28.9321995,200.386637 C32.4721323,191.452935 23.3846178,163.050115 60.5390816,184.261644 C61.2346129,184.658724 70.0299181,183.828448 70.7524719,184.261644 C70.7524719,184.261644 71.1619949,190.258515 57.6217327,196.503577 C45.4398703,202.122116 42.4054653,206.035605 41.4959107,206.808469" id="Stroke-3" fill="#DEE9F8" opacity="0.899999976"></path>
                    <path d="M56.3886538,196 C56.3886538,196 48.9745912,178.478974 56.0796038,172.254254 C61.2518773,167.722165 74.1441258,171.383487 80.9997021,171.629573 C87.6607495,171.870927 100.978239,172.839234 105.934021,177.319265 C107.941062,179.133432 116.082705,175.986688 117.344101,178.849397 C120.189215,185.306314 115.804478,196 115.804478,196" id="Stroke-7" fill="#DEE9F8" opacity="0.899999976"></path>
                    <path d="M25.9408979,222.991431 C25.9408979,222.991431 13.8609842,223.602148 16.3337182,214.512225 C17.8990555,208.756061 18.4993093,210.910884 22.2317968,201.491993 C23.380396,198.593282 22.5239323,192.37151 22.0936381,185.999283 M22.2470945,175.393007 C23.6184042,166.837623 29.45633,162.39023 49,174.107323" id="Stroke-3" stroke="#7C8495" stroke-width="4" stroke-linecap="round"></path>
                    <path d="M115.940898,222.991431 C115.940898,222.991431 103.860984,223.602148 106.333718,214.512225 C107.899055,208.756061 108.499309,210.910884 112.231797,201.491993 C115.837997,192.391052 99.6794756,150.533336 139,174.107323" id="Stroke-3" stroke="#7C8495" stroke-width="4" transform="translate(122.500000, 195.000000) scale(-1, 1) translate(-122.500000, -195.000000) "></path>
                    <path d="M53.0796037,188.620474 C53.0796037,188.620474 45.9745912,173.478974 53.0796038,167.254254 C58.2518773,162.722165 71.1441258,167.383487 77.9997021,167.629573 C84.6607495,167.870927 99.0354967,165.378635 103.991278,169.858667 C110.525254,175.764737 100.56208,188.620474 100.56208,188.620474" id="Stroke-7" stroke="#7C8495" stroke-width="4" stroke-linecap="round"></path>
                    <path d="M40.783572,273 C15.0157738,226.558285 50.5972997,180.27021 89.6837812,186.574322 C161.11577,198.095319 129.803172,273 129.803172,273" id="Stroke-1" fill="#DEE9F8" opacity="0.899999976"></path>
                    <path d="M31.783572,273 C6.01577378,226.558285 41.3402888,181.417999 80.8801247,185.224954 C153.093409,192.177946 120.803172,273 120.803172,273" id="Stroke-1" stroke="#7C8495" stroke-width="4"></path>
                    <path d="M73.4944335,258.345018 C71.0840563,257.369773 69.8184874,256.355968 68.6962209,253.603752 C67.5787848,250.857962 67.488617,245.787329 70.8441456,242.662367 C73.1675754,240.494977 75.42982,244.286705 74.5828871,244.916517 C71.9712425,246.863795 71.0792258,249.821664 71.6154019,251.997087 C72.6008067,256.004108 76.0046394,258.102412 80.1185432,256.465221 C84.127788,254.42315 80.4985359,250.827436 80.9075111,251.076468 C84.395071,253.202085 82.9362855,256.71586 80.7722594,258.071885 C79.3247449,258.979651 76.2944643,259.477716 73.4944335,258.345018" id="Fill-9" fill="#7C8495"></path>
                    <path d="M106.325684,273.95787 C110.021093,261.659872 120.758137,177.227589 120.758137,177.227589 L120.758137,130.055939 C120.758137,130.055939 135.381329,133.127919 135.381329,133.127919 C135.381329,133.127919 146.941866,129.537271 146.979969,133.127919 C146.973628,134.479547 145.52309,159.563065 146.979969,178.901837 C149.161843,207.864254 172.120957,273.957871 172.120957,273.957871 L106.325684,273.95787 Z" id="Fill-11" fill="#F7F9FC"></path>
                    <path d="M201.124194,124.35477 L198.751272,123.959796 L198.553529,126.329641 C198.158042,131.857646 193.413832,136.202361 187.679271,136.202361 C185.89958,136.202361 184.119889,135.807387 182.539575,134.819952 L179.771166,133.240056 L179.177936,136.399848 C178.386962,140.744564 174.374893,143.204175 170.081735,143.904356 C164.013788,144.891792 161.766703,140.199434 161.766703,140.199434 C161.766703,140.199434 154.554786,149.380134 154.700234,146.470056 C154.589105,143.267828 154.587471,137.818164 154.700234,134.997853 C154.940467,129.045496 155.45362,128.206584 151.585365,127.117957 C150.619527,126.845392 148.423104,125.782879 146.795397,125.707801 C143.928933,125.575599 141.913911,128.015625 136.672891,127.117957 C132.111717,125.986895 120.833823,117.011839 121.904253,126.659327 C121.78005,127.465596 122.23437,131.265181 121.904253,133.240052 C121.311022,132.450103 123.420809,137.867128 116.926325,136.935185 C109.980789,135.939589 106.610979,126.65933 106.610979,126.65933 C106.610979,126.65933 101.299687,134.691014 93.1693244,133.240056 C87.3301717,132.19876 82.2950669,128.304511 82.2950669,122.3799 C82.2950669,120.800003 82.6905538,119.02262 83.4815278,117.641843 L84.8657322,114.877024 L82.0973234,113.692102 C78.3418314,113.09964 75.771166,109.939848 75.771166,106.187594 C75.771166,104.806816 76.166653,103.424407 76.7598835,102.239485 L78.3418314,99.4746659 L75.1779356,98.6847176 C68.2569136,97.1048212 63.3149606,90.9843547 63.3149606,84.0723079 C63.3149606,77.7543543 67.0704526,72.4222039 72.8050137,70.0523592 L73.7937312,69.6573851 L74.1892181,68.4724628 C74.9801921,65.9067633 76.3643965,63.7344057 78.1440879,61.9570222 L79.3289146,60.7720999 L78.5395749,59.1922035 C77.3531139,57.0198459 76.7598835,54.6500012 76.7598835,52.2817887 C76.7598835,43.9873325 83.4815278,37.2744048 91.7867542,37.2744048 C92.3783504,37.2744048 92.9715809,37.2744048 93.7625548,37.4718919 L96.5309636,37.866866 L96.5309636,34.7070732 C96.5309636,23.8469174 105.427786,14.96 116.303678,14.96 C121.443374,14.96 126.189218,16.9348705 129.946344,20.2921504 L131.526658,21.6745598 L133.504093,20.4896375 C136.272502,18.1197928 140.029628,16.7373835 143.786754,16.7373835 C150.310655,16.7373835 156.24296,20.8846116 158.614247,27.0067102 L159.602965,29.5724098 L161.975886,28.1900004 C165.139782,26.4142491 168.699165,25.4268138 172.454657,25.4268138 C184.317632,25.4268138 193.809319,35.1020473 193.809319,46.7521513 C193.809319,47.9370736 193.809319,49.1219959 193.611576,50.1094312 L193.216089,52.8742499 L195.982863,52.8742499 L196.576094,52.8742499 C205.474551,52.8742499 212.789426,60.1796387 212.789426,69.064924 C212.789426,71.2372816 212.393939,73.2121521 211.602965,75.1870226 L210.614247,76.9644061 L212.393939,77.9518413 C216.744295,80.5175409 219.314961,85.0597431 219.314961,90.1944065 C219.314961,94.3400025 217.535269,98.2897435 214.371373,100.857075 L212.987169,102.239485 L213.975886,103.819381 C215.162347,105.990106 215.953321,108.359951 215.953321,110.729796 C215.755578,118.232672 209.823273,124.35477 202.310655,124.35477 L201.124194,124.35477 Z" id="Fill-13" fill="#97E5C8" opacity="0.299999982"></path>
                    <path d="M107.585099,0 C113.655607,0 119.260934,2.33252425 123.698485,6.29781546 L125.564997,7.93058244 L127.90055,6.53106789 C131.170324,3.73203879 135.607875,2.09927182 140.045425,2.09927182 C147.75082,2.09927182 154.757479,6.99757274 157.558213,14.2283979 L158.725989,17.2587517 L161.528653,15.6259847 C165.265537,13.5286406 169.469533,12.3623785 173.905153,12.3623785 C187.916541,12.3623785 199.127195,23.7898196 199.127195,37.5497849 C199.127195,38.9492995 199.127195,40.348814 198.89364,41.5150762 L198.426529,44.7806101 L201.694373,44.7806101 L202.395039,44.7806101 C212.905028,44.7806101 221.544644,53.4090221 221.544644,63.9034535 C221.544644,66.4692302 221.077533,68.8017544 220.143312,71.1342787 L218.975535,73.2335505 L221.077533,74.3998126 C226.21575,77.4301664 229.251969,82.7949722 229.251969,88.8595352 C229.251969,93.7559084 227.149971,98.4209569 223.413086,101.453238 L221.778199,103.086005 L222.945975,104.952025 C224.347307,107.515874 225.281528,110.314903 225.281528,113.113932 C225.047973,121.975596 218.041314,129.206422 209.168143,129.206422 L207.766811,129.206422 L204.964148,128.739917 L204.730592,131.538946 C204.263482,138.068086 198.660085,143.199639 191.886981,143.199639 C189.784983,143.199639 187.682986,142.733134 185.816473,141.566872 L182.546699,139.700853 L181.846033,143.432892 C180.911812,148.564445 176.173149,151.469498 171.10249,152.296484 C163.935623,153.462746 161.281586,147.920591 161.281586,147.920591 C161.281586,147.920591 152.763573,158.763937 152.935362,155.326838 C152.804108,151.544679 152.7606,145.10669 152.935362,141.776992 C153.542015,130.218536 143.524844,130.307211 141.602356,130.218536 C138.216769,130.062392 135.656749,132.599179 129.466568,131.53894 C112.860947,127.124374 120.372735,142.043016 119.982832,144.37554 C119.282166,143.44253 115.99116,145.165899 108.320509,144.065179 C100.11712,142.889279 96.1370293,131.928342 96.1370293,131.928342 C96.1370293,131.928342 89.8638497,141.414584 80.2610595,139.700853 C73.3644225,138.470977 67.4174483,133.87147 67.4174483,126.873897 C67.4174483,125.007878 67.8845589,122.908606 68.8187801,121.277767 L70.4536672,118.012233 L67.183893,116.612718 C62.7482725,115.912961 59.7120536,112.180922 59.7120536,107.749126 C59.7120536,106.118287 60.1791642,104.48552 60.8798301,103.086005 L62.7482725,99.8204715 L59.0113877,98.8874618 C54.6373484,97.8889779 50.9325744,95.3550013 48.4332041,91.9639175 M45,81.6287101 C45,74.1665602 49.4356205,67.8687447 56.2087241,65.0697156 L57.3765006,64.6032108 L57.8436112,63.2036962 C58.7778324,60.1733424 60.4127195,57.6075658 62.5147172,55.5082939 L63.9141188,54.1087794 L62.9818278,52.24276 C61.580496,49.6769833 60.8798301,46.8779542 60.8798301,44.0808528 C60.8798301,34.284251 68.8187801,26.3555963 78.6281027,26.3555963 C79.3268383,26.3555963 80.0275042,26.3555963 80.9617254,26.5888487 L84.2314996,27.0553535 L84.2314996,23.3233148 C84.2314996,13.7339995 90.1043709,5.44723635 98.4362618,1.8748661" id="Stroke-15" stroke="#7C8495" stroke-width="4" stroke-linecap="round"></path>
                    <path d="M119.791602,143.123325 C124.258078,168.965273 111.615326,246.651871 106.064783,271.427483" id="Stroke-17" stroke="#7C8495" stroke-width="4"></path>
                    <path d="M152.940375,155.042524 C152.940375,170.058356 156.62628,192.494018 161.78613,214.630512 M165.671261,230.207192 C170.036115,246.620519 174.951474,261.801052 179.441637,272.343923" id="Stroke-19" stroke="#7C8495" stroke-width="4" stroke-linecap="round"></path>
                    <path d="M101,76.5 C101,80.0902469 98.0906061,83 94.5008024,83 C90.9109986,83 88,80.0902469 88,76.5 C88,72.9097531 90.9109986,70 94.5008024,70 C98.0906061,70 101,72.9097531 101,76.5 M134,97 C134,99.7606178 131.762227,102 129,102 C126.239382,102 124,99.7606178 124,97 C124,94.2393822 126.239382,92 129,92 C131.762227,92 134,94.2393822 134,97 M128,44.5 C128,47.5374564 125.537099,50 122.499201,50 C119.462901,50 117,47.5374564 117,44.5 C117,41.4625436 119.462901,39 122.499201,39 C125.537099,39 128,41.4625436 128,44.5 M184,100.5 C184,103.537456 181.537099,106 178.499201,106 C175.462901,106 173,103.537456 173,100.5 C173,97.4625436 175.462901,95 178.499201,95 C181.537099,95 184,97.4625436 184,100.5 M169,59.5 C169,62.5374564 166.537099,65 163.499201,65 C160.462901,65 158,62.5374564 158,59.5 C158,56.4625436 160.462901,54 163.499201,54 C166.537099,54 169,56.4625436 169,59.5" id="Combined-Shape" fill="#FFFFFF"></path>
                    <line x1="0" y1="273" x2="275" y2="273" id="Stroke-31" stroke="#7C8495" stroke-width="4" stroke-linecap="round"></line>
                    <path d="M145.654581,130.733311 C148.444277,131.528224 153.104245,133.626636 157.752154,132.922068" id="Stroke-33" stroke="#7C8495" stroke-width="4" stroke-linecap="round"></path>
                    <path d="M128.254089,131.18258 C125.106823,130.209703 116.67205,128.462036 112.052894,131.18258" id="Stroke-35" stroke="#7C8495" stroke-width="4" stroke-linecap="round"></path>
                </g>
                <g id="Additional-Elements" transform="translate(100.000000, 0.000000)">
                    <polyline id="Path-11" stroke="#48D2A0" stroke-width="4" opacity="0.66511194" stroke-linecap="round" stroke-linejoin="round" transform="translate(74.898704, 199.399039) rotate(-345.000000) translate(-74.898704, -199.399039) " points="67 192 82.7974071 192 67 206.798079 82.7974066 206.798078"></polyline>
                    <polyline id="Path-11" stroke="#48D2A0" stroke-width="3" opacity="0.66511194" stroke-linecap="round" stroke-linejoin="round" transform="translate(49.168827, 184.399039) rotate(-15.000000) translate(-49.168827, -184.399039) " points="45.5402477 181 52.7974071 181 45.5402477 187.798079 52.7974069 187.798078"></polyline>
                    <polyline id="Path-11" stroke="#48D2A0" stroke-width="2" opacity="0.66511194" stroke-linecap="round" stroke-linejoin="round" transform="translate(36.633302, 170.887148) rotate(10.000000) translate(-36.633302, -170.887148) " points="34.5234655 168.910778 38.7431375 168.910778 34.5234655 172.863518 38.7431374 172.863518"></polyline>
                    <circle id="Oval-11" fill="#48D2A0" opacity="0.317922108" cx="51.75" cy="49.25" r="4.75"></circle>
                    <g id="Group-23" opacity="0.379999995" transform="translate(97.676965, 13.895474) rotate(-153.000000) translate(-97.676965, -13.895474) translate(87.676965, 3.395474)" stroke="#48D2A0" stroke-linecap="round" stroke-width="7">
                        <line x1="2.52420307e-12" y1="10.3253866" x2="19.7389208" y2="10.3253866" id="Line"></line>
                        <g id="Group-22" transform="translate(9.760346, 10.456494) rotate(-270.000000) translate(-9.760346, -10.456494) translate(-0.239654, 7.456494)">
                            <line x1="-1.79412041e-13" y1="2.89110824" x2="19.7389208" y2="2.89110824" id="Line"></line>
                        </g>
                    </g>
                    <g id="Group-23" opacity="0.360000014" transform="translate(534.472194, 247.472194) rotate(-255.000000) translate(-534.472194, -247.472194) translate(523.472194, 236.472194)" stroke="#48D2A0" stroke-linecap="round" stroke-width="6">
                        <line x1="1.8189894e-12" y1="10.9700958" x2="21.9401915" y2="10.9700958" id="Line"></line>
                        <g id="Group-22" transform="translate(10.712620, 11.000000) rotate(-270.000000) translate(-10.712620, -11.000000) translate(-0.287380, 8.000000)">
                            <line x1="1.15285559e-12" y1="2.74252394" x2="21.9401915" y2="2.74252394" id="Line"></line>
                        </g>
                    </g>
                    <circle id="Oval-11" fill="#48D2A0" opacity="0.253206623" cx="41.5" cy="443.5" r="7.5"></circle>
                    <circle id="Oval-11" fill="#48D2A0" opacity="0.212278451" cx="4.5" cy="411.5" r="4.5"></circle>
                    <g id="Group-23" opacity="0.35" transform="translate(430.314996, 74.668549) rotate(-40.000000) translate(-430.314996, -74.668549) translate(422.814996, 66.668549)" stroke="#48D2A0" stroke-linecap="round" stroke-width="6">
                        <line x1="1.96109795e-12" y1="7.37881805" x2="14.4038414" y2="7.37881805" id="Line"></line>
                        <g id="Group-22" transform="translate(7.056035, 7.684219) rotate(-270.000000) translate(-7.056035, -7.684219) translate(-0.443965, 5.684219)">
                            <line x1="2.67341704e-13" y1="1.84470451" x2="14.4038414" y2="1.84470451" id="Line"></line>
                        </g>
                    </g>
                    <circle id="Oval-11" fill="#48D2A0" opacity="0.149778451" cx="355.5" cy="49.5" r="7.5"></circle>
                    <circle id="Oval-11" fill="#48D2A0" opacity="0.26000002" cx="402.5" cy="30.5" r="4.5"></circle>
                    <circle id="Oval-11" fill="#48D2A0" opacity="0.157532649" cx="513" cy="287" r="7"></circle>
                </g>
            </g>
        </g>
    </g>
</svg>