<?xml version="1.0" encoding="UTF-8"?>
<svg width="670px" height="475px" viewBox="0 0 670 475" version="1.1" xmlns="http://www.w3.org/2000/svg" xmlns:xlink="http://www.w3.org/1999/xlink">
    <title>Phone Illustration</title>
    <g id="Page-1" stroke="none" stroke-width="1" fill="none" fill-rule="evenodd">
        <g id="1.1-Onbording" transform="translate(-37.000000, -210.000000)">
            <g id="Phone-Illustration" transform="translate(37.000000, 214.000000)">
                <path d="M594.993551,69 C611.399934,69 624.730999,82.160601 624.99598,98.503788 L625,99 C625,115.568542 611.571821,129 594.993551,129 L568.493968,129 C551.938997,129 538.5,142.431458 538.5,159 C538.5,175.572185 551.928757,189 568.493968,189 L639.998123,189 C656.402007,189 669.73104,202.160601 669.995981,218.503788 L670,219 C670,235.568542 656.570157,249 639.998123,249 L571,249 L571.000691,249.264689 C569.850899,249.111424 568.680515,249.023259 567.493371,249.004018 L566.99722,249 L492.00278,249 C475.437867,249 462,262.431458 462,279 C462,295.572185 475.432702,309 492.00278,309 L566.99722,309 C568.354575,309 569.690933,308.909816 571.000622,308.735111 L571,309 L592.998123,309 C609.402007,309 622.73104,322.160601 622.995981,338.503788 L623,339 C623,355.568542 609.570157,369 592.998123,369 L533.00595,369 C549.405554,369 562.73111,382.160601 562.995982,398.503788 L563,399 C563,415.568542 549.576215,429 533.00595,429 L74.9940497,429 C58.4287935,429 45,415.572185 45,399 C45,382.431458 58.4237852,369 74.9940497,369 L93.0018766,369 C76.4322977,369 63,355.572185 63,339 C63,322.431458 76.4298433,309 93.0018766,309 L30.0018766,309 C13.4322977,309 0,295.572185 0,279 C0,262.431458 13.4298433,249 30.0018766,249 L122.99563,249 C139.568478,249 153,235.568542 153,219 L152.99598,218.503788 C152.731018,202.160601 139.400876,189 122.99563,189 L107.001877,189 C90.4322977,189 77,175.572185 77,159 C77,142.431458 90.4298433,129 107.001877,129 L58.0018766,129 C41.4322977,129 28,115.572185 28,99 C28,82.4314575 41.4298433,69 58.0018766,69 L594.993551,69 Z M634.995202,9 C651.400683,9 664.731014,22.160601 664.99598,38.503788 L665,39 C665,55.5685425 651.5598,69 634.995202,69 L109.254798,69 C92.6836055,69 79.25,55.5721855 79.25,39 C79.25,22.4314575 92.6901997,9 109.254798,9 L634.995202,9 Z" id="Combined-Shape" fill="#F6F9FC" opacity="0.835389459"></path>
                <g id="Additional-Elements" transform="translate(47.000000, 0.000000)">
                    <circle id="Oval-11" fill="#48D2A0" opacity="0.162430037" cx="503.5" cy="20.5" r="7.5"></circle>
                    <circle id="Oval-11" fill="#48D2A0" opacity="0.170184235" cx="479.5" cy="56.5" r="4.5"></circle>
                    <circle id="Oval-11" fill="#48D2A0" opacity="0.301364272" cx="519" cy="83" r="7"></circle>
                    <circle id="Oval-11" fill="#48D2A0" opacity="0.184001866" cx="110" cy="64" r="7"></circle>
                    <circle id="Oval-11" fill="#48D2A0" opacity="0.149778451" cx="91.5" cy="111.5" r="4.5"></circle>
                    <g id="Group-23" opacity="0.364272388" transform="translate(193.000000, 14.500000) rotate(-120.000000) translate(-193.000000, -14.500000) translate(183.000000, 4.000000)" stroke="#48D2A0" stroke-linecap="round" stroke-width="7">
                        <line x1="2.35367281e-12" y1="10.3253866" x2="19.7389208" y2="10.3253866" id="Line"></line>
                        <g id="Group-22" transform="translate(9.760346, 10.456494) rotate(-270.000000) translate(-9.760346, -10.456494) translate(-0.239654, 7.456494)">
                            <line x1="-2.93098879e-13" y1="2.89110824" x2="19.7389208" y2="2.89110824" id="Line"></line>
                        </g>
                    </g>
                    <g id="Group-23" opacity="0.46379431" transform="translate(434.000000, 402.000000) rotate(-330.000000) translate(-434.000000, -402.000000) translate(423.000000, 391.000000)" stroke="#48D2A0" stroke-linecap="round" stroke-width="6">
                        <line x1="1.8189894e-12" y1="10.9700958" x2="21.9401915" y2="10.9700958" id="Line"></line>
                        <g id="Group-22" transform="translate(10.712620, 11.000000) rotate(-270.000000) translate(-10.712620, -11.000000) translate(-0.287380, 8.000000)">
                            <line x1="1.15285559e-12" y1="2.74252394" x2="21.9401915" y2="2.74252394" id="Line"></line>
                        </g>
                    </g>
                    <circle id="Oval-11" fill="#48D2A0" opacity="0.223822295" cx="373.5" cy="437.5" r="7.5"></circle>
                    <circle id="Oval-11" fill="#48D2A0" opacity="0.135377799" cx="337.5" cy="383.5" r="4.5"></circle>
                    <g id="Group-23" opacity="0.390741604" transform="translate(545.500000, 250.000000) rotate(-15.000000) translate(-545.500000, -250.000000) translate(538.000000, 242.000000)" stroke="#48D2A0" stroke-linecap="round" stroke-width="6">
                        <line x1="1.8189894e-12" y1="7.37881805" x2="14.4038414" y2="7.37881805" id="Line"></line>
                        <g id="Group-22" transform="translate(7.056035, 7.684219) rotate(-270.000000) translate(-7.056035, -7.684219) translate(-0.443965, 5.684219)">
                            <line x1="2.10498285e-13" y1="1.84470451" x2="14.4038414" y2="1.84470451" id="Line"></line>
                        </g>
                    </g>
                </g>
                <g id="Earth" transform="translate(269.000000, 37.000000)">
                    <g id="Path-12-+-Path-13-Mask">
                        <circle id="Oval-15" fill="#FFFFFF" cx="149.868421" cy="170.440789" r="119"></circle>
                        <path d="M168.296993,269.237179 C168.296993,269.237179 190.773865,252.132305 187.289897,242.719021 C183.80593,233.305736 134.577114,216.148234 142.398534,194.826045 C150.219954,173.503856 181.648551,184.273367 193.226948,175.80834 C204.805345,167.343313 209.816852,150.870077 221.230992,145.472024 C232.645132,140.073971 233.882865,158.609483 247.646495,150.071876 C261.410125,141.53427 257.242969,103.817402 268.518864,116.139265 C281.774012,116.139265 313.166045,94.0956519 298.85457,152.951306 C284.543096,211.80696 231.291229,269.237175 231.291229,269.237175 L168.296993,269.237179 Z" id="Path-12" fill="#E9F1FB"></path>
                        <path d="M162.182826,229.48553 C147.463136,220.221792 129.432797,208.363279 134.398534,194.826045 C138.274429,184.259861 147.947504,181.57439 158.129379,180.52368 M171.297119,179.564129 C176.896581,179.091298 181.887432,178.249878 185.226948,175.80834 C196.805345,167.343313 201.816852,150.870077 213.230992,145.472024 C224.645132,140.073971 225.882865,158.609483 239.646495,150.071876 C253.410125,141.53427 249.242969,103.817402 260.518864,116.139265 C273.774012,116.139265 305.166045,94.0956519 290.85457,152.951306 C276.543096,211.80696 223.291229,269.237175 223.291229,269.237175 L160.296993,269.237179 L160.296993,269.237179 C160.296993,269.237179 182.773865,252.132305 179.289897,242.719021 C178.410923,240.344131 174.620247,237.476315 169.568613,234.173054" id="Path-12" stroke="#7C8495" stroke-width="4" stroke-linecap="round"></path>
                        <path d="M65.5865738,95.2515368 C83.4622712,103.439609 76.2499436,62.8765018 94.4238919,73.2436016 C98.5716051,75.6096124 101.88508,78.2854651 104.66406,81.0960776 C106.457673,82.9101068 108.028633,84.7802727 109.457529,86.6595024 C115.51532,94.6264799 119.019758,102.756363 126.111596,107.462304 C129.028011,109.397554 133.823199,110.553915 139.147325,110.840079 C143.047026,111.049682 147.2305,110.792428 151.167313,110.032437 C162.785013,107.78967 172.254632,101.16874 165.944268,89.2475273 C154.576135,67.7714421 172.466397,64.8911877 178.340121,53.3864436 C184.213845,41.8816995 189.204952,29.0454314 183.154291,11.8686429 C177.103629,-5.30814549 154.576132,1.7282966 154.576132,1.7282966 L2.94393743,67.7714446 C2.94393743,67.7714446 47.7108764,87.0634645 65.5865738,95.2515368 Z" id="Path-13" fill="#E9F1FB"></path>
                        <path d="M107.457529,91.6595024 C113.51532,99.6264799 117.019758,107.756363 124.111596,112.462304 C127.028011,114.397554 131.823199,115.553915 137.147325,115.840079 M149.167313,115.032437 C160.785013,112.78967 170.254632,106.16874 163.944268,94.2475273 C152.576135,72.7714421 170.466397,69.8911877 176.340121,58.3864436 C182.213845,46.8816995 187.204952,34.0454314 181.154291,16.8686429 C175.103629,-0.308145488 152.576132,6.7282966 152.576132,6.7282966 L0.943937428,72.7714446 C0.943937428,72.7714446 45.7108764,92.0634645 63.5865738,100.251537 L63.5865738,100.251537 C81.4622712,108.439609 74.2499436,67.8765018 92.4238919,78.2436016 C96.5716051,80.6096124 99.8850799,83.2854651 102.66406,86.0960776" id="Path-13" stroke="#7C8495" stroke-width="4" stroke-linecap="round"></path>
                    </g>
                    <path d="M227.768253,65.4988913 C206.351038,44.7620323 177.165885,32 145,32 C79.2781148,32 26,85.2781148 26,151 C26,196.561226 51.6046966,236.142155 89.2096155,256.138313 M114.781826,266.129458 C124.431301,268.655237 134.558607,270 145,270 C210.721885,270 264,216.721885 264,151 C264,127.77288 257.345437,106.100016 245.838836,87.7839349 M237.295831,75.8776309 C236.262448,74.6095467 235.203454,73.3631624 234.119635,72.1392666" id="Mask" stroke="#7C8495" stroke-width="4" stroke-linecap="round"></path>
                    <path d="M186.280869,90.3158832 C197.757809,98.0861624 219.204482,100.894945 207.715728,78.7506586 C196.226974,56.6063725 174.803928,82.545604 186.280869,90.3158832 Z" id="Path-13" stroke="#7C8495" stroke-width="4" fill="#97E5C8"></path>
                    <path d="M127.843857,249.944571 C138.563072,251.042157 135.670492,235.616599 116.116209,223.428078 C96.5619271,211.239557 117.124643,248.846985 127.843857,249.944571" id="Path-13" stroke="#7C8495" stroke-width="4" fill="#97E5C8"></path>
                </g>
                <g transform="translate(231.277735, 272.509025) rotate(-330.000000) translate(-231.277735, -272.509025) translate(110.777735, 145.509025)">
                    <path d="M99.0032599,75.432152 C57.4033507,58.9949666 67.2312263,135.23676 41.6035805,200.632008 C28.2352015,227.477979 56.0779752,192.60376 70.6618285,197.052174 C85.2456819,201.500587 75.5912138,234.357167 88.5367895,220.969502 C101.482365,207.581837 106.162591,197.052174 125.591385,197.052174 C145.02018,197.052174 137.041308,222.771759 151.635567,220.969502 C166.229827,219.167245 171.959446,192.872668 186.622138,190.348606 C201.284831,187.824545 210.858573,223.1626 212.94349,204.003971 C216.595807,167.052403 159.729938,110.193313 159.729929,63.2456285 C159.729921,16.2979442 125.663208,66.2485647 99.0032599,75.432152 Z" id="Path-2" fill="#8ADAF8" transform="translate(125.591388, 133.787022) rotate(-345.000000) translate(-125.591388, -133.787022) "></path>
                    <path d="M37.4187611,191.687549 C33.6036357,202.772325 29.2363249,213.601819 24.0373538,223.646277 C10.6689749,250.492248 51.6977997,198.363864 66.281653,202.812277 C80.8655064,207.26069 66.1923477,237.375311 82.5110504,223.646277 C98.8297531,209.917242 98.1053165,205.703423 118.380481,202.812277 C138.655645,199.921131 132.698919,225.448534 147.293178,223.646277 C151.832536,223.085707 155.842527,219.781398 159.654516,215.418438 C159.654516,215.418438 163.456332,210.786155 166.224017,206.971246 M165.462486,208.023861 C171.735257,199.524769 177.931887,190.489406 185.672565,189.156912 C200.335257,186.63285 217.549013,221.970905 219.633929,202.812277 C220.492036,194.130558 217.587753,184.349928 212.641649,173.857118 M207.636662,164.143756 C189.842801,131.983894 158.780361,94.632524 158.780355,62.0539341 C158.780347,15.1062497 124.713634,65.0568703 98.0536861,74.2404576 L98.0536861,74.2404576 C65.8562005,61.5184096 59.618954,118.463509 42.6094894,175.447865" id="Path-2" stroke="#7C8495" stroke-width="4" stroke-linecap="round" transform="translate(120.590692, 136.797539) rotate(-345.000000) translate(-120.590692, -136.797539) "></path>
                    <path d="M213.390836,58.2876298 C213.390836,58.2876298 216.475108,42.2415366 211.037321,34.2287559 C205.599534,26.2159752 177.039521,13.9120859 177.039521,13.9120859" id="Path-5" stroke="#6E7585" stroke-width="6" stroke-linecap="round" stroke-linejoin="round" transform="translate(195.650789, 36.099858) rotate(76.000000) translate(-195.650789, -36.099858) "></path>
                    <path d="M79.2347791,138.957204 L79.2347791,94.9613491 L79.2347791,16.9777398 C79.2347791,11.4504191 83.5671147,5.87296697 88.9671805,4.65853185 C88.9671805,4.65853185 104.254204,-4.9101432e-13 129.273628,-4.97379915e-13 C154.293053,-5.02439747e-13 169.580076,4.65853185 169.580076,4.65853185 C174.955133,5.9349218 179.312478,11.4500421 179.312478,16.9760981 L179.312478,144.566436 L179.312478,156.66723 L179.312478,172.959283 C179.312478,178.478693 174.915577,183.787108 169.465696,184.704554 C169.465696,184.704554 154.293053,188.180288 129.273628,188.180288 C126.405378,188.180288 123.666539,188.134608 121.065136,188.053722 C117.112929,187.930834 113.477945,187.726685 110.188323,187.478002 C96.7557423,186.462548 89.0590096,184.732229 89.0590096,184.732229 C83.6332369,183.74962 79.2347791,178.471955 79.2347791,172.955964 L79.2347791,138.957204 Z" id="Rectangle-9" fill="#F6F9FC"></path>
                    <path d="M79.2347791,136.069983 L79.2347791,128.427376 M79.2347791,132.331268 L79.2347791,105.87303 L79.2347791,16.9617223 C79.2347791,11.4432478 83.5671147,5.87296697 88.9671805,4.65853185 C88.9671805,4.65853185 104.254204,-7.18387996e-13 129.273628,-7.2475359e-13 C133.236783,-7.25555084e-13 136.955736,0.116889742 140.408411,0.313637832 M147.664361,0.870225102 C161.572957,2.21846096 169.580076,4.65853185 169.580076,4.65853185 C174.955133,5.9349218 179.312478,11.4500421 179.312478,16.9760981 L179.312478,144.566436 L179.312478,156.66723 L179.312478,172.959283 C179.312478,178.478693 174.915577,183.787108 169.465696,184.704554 C169.465696,184.704554 154.293053,188.180288 129.273628,188.180288 C126.405378,188.180288 123.666539,188.134608 121.065136,188.053722 M110.188323,187.478002 C96.7557423,186.462548 89.0590096,184.732229 89.0590096,184.732229 C83.6332369,183.74962 79.2347791,178.475832 79.2347791,172.962628 L79.2347791,144.738805 L79.2279456,134.730728" id="Rectangle-9" stroke="#7C8495" stroke-width="4" stroke-linecap="round" stroke-linejoin="round"></path>
                    <path d="M169.903463,70.1419554 L169.903463,77.0978399 M169.903463,85.6367718 L169.903463,155.096123 C169.903463,157.306232 168.111536,159.09788 165.901501,159.09788 L92.6457563,159.09788 C90.4355333,159.09788 88.6437935,157.313593 88.6437935,155.100479 L88.6437935,118.184897 L88.6437935,118.184897 L88.6437935,104.307649 L88.6437935,24.5272845 C88.6437935,22.3189597 90.435721,20.5287587 92.6457563,20.5287587 L165.901501,20.5287587 C168.111724,20.5287587 169.903463,22.3262223 169.903463,24.5273719 L169.903463,45.2453209" id="Rectangle-9" stroke="#7C8495" stroke-width="4" fill="#FFFFFF" stroke-linecap="round" stroke-linejoin="round"></path>
                    <path d="M141.923928,102.416827 L136.445885,118.017728 L130.967841,102.416827 C130.956022,102.375461 130.938294,102.334095 130.914656,102.275001 C130.879199,102.204088 130.867381,102.174541 130.843743,102.115446 C130.749191,101.938162 130.631004,101.778609 130.489177,101.636782 C130.335531,101.483136 130.164159,101.359039 129.975056,101.264488 C129.904143,101.211303 129.874596,101.205394 129.815502,101.193575 C129.768226,101.169937 129.73277,101.152209 129.709132,101.14039 C129.579124,101.093114 129.531849,101.081295 129.496392,101.069477 C129.366385,101.039929 129.325019,101.03402 129.301381,101.03402 C129.165464,101.022201 129.124098,101.016292 129.088641,101.016292 L128.89363,101.016292 C128.745894,101.028111 128.426785,101.093114 128.37951,101.104933 C128.279049,101.14039 128.243593,101.152208 128.184498,101.175846 C128.107676,101.211303 128.089948,101.223122 128.042672,101.24676 C127.84175,101.35313 127.664469,101.483136 127.510823,101.636782 C127.368996,101.778609 127.250809,101.944072 127.156257,102.133174 C127.132619,102.18045 127.043978,102.375461 127.032159,102.399099 L121.554115,118.017728 L116.076072,102.416827 C115.87515,101.873157 115.514678,101.471319 114.994646,101.211303 C114.474613,100.963106 113.942769,100.933559 113.399099,101.122661 C112.855428,101.323583 112.4595,101.684055 112.211303,102.204088 C111.963106,102.72412 111.933559,103.255964 112.122661,103.799634 L119.568546,125.020406 C119.609912,125.120866 119.645368,125.209507 119.692644,125.304058 C119.775376,125.439976 119.828561,125.516797 119.887655,125.587711 C119.964478,125.694081 120.023572,125.759084 120.082667,125.818179 C120.189037,125.91273 120.259949,125.971824 120.330863,126.030918 C120.454961,126.113651 120.525874,126.155016 120.596787,126.190473 C120.714976,126.243658 120.791798,126.273205 120.862712,126.296843 C120.951354,126.338209 121.034085,126.355937 121.128636,126.367756 C121.323648,126.409122 121.435926,126.420941 121.554115,126.420941 C121.660486,126.420941 121.766854,126.409122 121.873225,126.385484 C122.056418,126.355937 122.139149,126.338209 122.210062,126.314571 C122.304614,126.273205 122.375526,126.243658 122.458258,126.208201 C122.564629,126.155016 122.635541,126.113651 122.706455,126.066375 C122.842372,125.971824 122.913284,125.91273 122.972379,125.853635 C123.06693,125.759084 123.126024,125.699991 123.185119,125.640896 C123.267851,125.516797 123.315126,125.439976 123.362402,125.357243 C123.445134,125.209507 123.4865,125.120866 123.521956,125.038134 C123.521956,125.026315 129,109.419504 129,109.419504 L134.478044,125.020406 C134.5135,125.120866 134.554866,125.209507 134.602142,125.304058 C134.684874,125.439976 134.732149,125.516797 134.779425,125.587711 C134.862157,125.694081 134.915341,125.759084 134.974436,125.818179 C135.086716,125.91273 135.157628,125.971824 135.24036,126.030918 C135.346731,126.113651 135.417643,126.155016 135.488557,126.190473 C135.612655,126.243658 135.683568,126.273205 135.754481,126.296843 C135.849032,126.338209 135.925854,126.355937 136.020406,126.367756 C136.227236,126.409122 136.339514,126.420941 136.445885,126.420941 C136.552255,126.420941 136.664533,126.409122 136.782722,126.385484 C136.965915,126.355937 137.048646,126.338209 137.11956,126.314571 C137.208202,126.273205 137.285024,126.243658 137.367756,126.208201 C137.474126,126.155016 137.545039,126.113651 137.615952,126.066375 C137.740051,125.971824 137.810963,125.91273 137.881877,125.853635 C137.976428,125.759084 138.029612,125.699991 138.076888,125.640896 C138.171439,125.516797 138.224624,125.439976 138.271899,125.357243 C138.354632,125.209507 138.390088,125.120866 138.413726,125.038134 L145.877339,103.799634 C146.066441,103.255964 146.036894,102.72412 145.788697,102.204088 C145.5405,101.684055 145.144572,101.323583 144.600901,101.122661 C144.045412,100.933559 143.507659,100.963106 142.987626,101.211303 C142.467594,101.471319 142.113031,101.873157 141.923928,102.416827 Z" id="W" stroke="#15B4F1" stroke-width="3" fill="#15B4F1" opacity="0.5"></path>
                    <path d="M111.970563,49.208955 C111.970563,49.208955 112.323617,45.6046438 115.202168,45.0018496 C118.080718,44.3990555 119.668848,47.903289 119.668848,47.903289" id="Path-8" stroke="#7C8495" stroke-width="4" stroke-linecap="round" stroke-linejoin="round" transform="translate(115.819705, 47.070543) rotate(7.000000) translate(-115.819705, -47.070543) "></path>
                    <path d="M138.486876,49.208955 C138.486876,49.208955 138.839931,45.6046438 141.718481,45.0018496 C144.597031,44.3990555 146.185161,47.903289 146.185161,47.903289" id="Path-8" stroke="#7C8495" stroke-width="4" stroke-linecap="round" stroke-linejoin="round" transform="translate(142.336019, 47.070543) rotate(7.000000) translate(-142.336019, -47.070543) "></path>
                    <path d="M116.870837,11.4388355 C116.870837,10.3177963 117.768335,9.29542855 118.87977,9.1684713 C118.87977,9.1684713 123.072233,8.55364946 129.273628,8.55364946 C135.475024,8.55364946 139.667487,9.1684713 139.667487,9.1684713 C140.77699,9.30131959 141.67642,10.3079627 141.67642,11.4388355 L141.67642,10.8006531 C141.67642,11.9216923 140.778922,12.7168883 139.667487,12.5899311 C139.667487,12.5899311 135.475024,11.9751092 129.273628,11.9751092 C123.072233,11.9751092 118.87977,12.5899311 118.87977,12.5899311 C117.770267,12.7227794 116.870837,11.9315259 116.870837,10.8006531 L116.870837,11.4388355 Z" id="Rectangle-10" fill="#E1EBF7"></path>
                    <path d="M50.0259759,115.010808 C50.0259759,115.010808 62.6377544,106.570376 62.6377544,91.8350001 C62.6377544,77.0996239 52.7052334,52.4425261 52.7052334,52.4425261" id="Path-5" stroke="#6E7585" stroke-width="6" stroke-linecap="round" stroke-linejoin="round" transform="translate(56.331865, 83.726667) rotate(-148.000000) translate(-56.331865, -83.726667) "></path>
                    <circle id="Oval" fill="#E1EBF7" cx="129.701311" cy="173.639084" r="7.69828451"></circle>
                    <path d="M113.947333,69.9890401 C112.863025,72.3531543 116.229144,74.1746839 120.443202,73.684025 C124.657259,73.193366 127.780752,69.258372 126.751697,67.5000001 C125.722643,65.7416282 115.031641,67.6249258 113.947333,69.9890401 Z" id="Path-10" fill="#7C8495" transform="translate(120.345685, 70.287086) rotate(32.000000) translate(-120.345685, -70.287086) "></path>
                </g>
            </g>
        </g>
    </g>
</svg>