<?xml version="1.0" encoding="UTF-8"?>
<svg width="643px" height="449px" viewBox="0 0 643 449" version="1.1" xmlns="http://www.w3.org/2000/svg" xmlns:xlink="http://www.w3.org/1999/xlink">
    <title>Phone Illustration</title>
    <g id="Page-1" stroke="none" stroke-width="1" fill="none" fill-rule="evenodd">
        <g id="1.2-Onbording" transform="translate(-55.000000, -211.000000)">
            <g id="Phone-Illustration" transform="translate(55.000000, 215.000000)">
                <path d="M547.50437,78 C530.931522,78 517.5,91.4314575 517.5,108 C517.5,124.572185 530.933414,138 547.50437,138 L571,137.999 L571.000184,138.065234 C586.472732,139.080782 598.741934,151.828374 598.995982,167.503788 L599,168 C599,183.897976 586.626804,196.907658 571.000088,197.93468 L571,198 L609.998123,198 C626.402007,198 639.73104,211.160601 639.995981,227.503788 L640,228 C640,244.568542 626.570157,258 609.998123,258 L562.007914,258 C545.431838,258 532,271.431458 532,288 C532,304.572185 545.435001,318 562.007914,318 L612.998123,318 C629.402007,318 642.73104,331.160601 642.995981,347.503788 L643,348 C643,364.568542 629.570157,378 612.998123,378 L533.00595,378 C549.405554,378 562.73111,391.160601 562.995982,407.503788 L563,408 C563,424.568542 549.576215,438 533.00595,438 L74.9940497,438 C58.4287935,438 45,424.572185 45,408 C45,391.431458 58.4237852,378 74.9940497,378 L118.001533,378 C134.568935,378 148,364.568542 148,348 L147.995981,347.503788 C147.731071,331.160601 134.403552,318 118.001533,318 L30.0018766,318 C13.4322977,318 0,304.572185 0,288 C0,271.431458 13.4298433,258 30.0018766,258 L55.5043705,258 C38.9334142,258 25.5,244.572185 25.5,228 C25.5,211.431458 38.9315215,198 55.5043705,198 L160.506032,198 C177.061003,198 190.5,184.568542 190.5,168 L190.495982,167.503788 C190.231111,151.160601 176.905591,138 160.506032,138 L88.0018766,138 C71.4322977,138 58,124.572185 58,108 C58,91.4314575 71.4298433,78 88.0018766,78 Z M574.995202,18 C591.400683,18 604.731014,31.160601 604.99598,47.503788 L605,48 C605,64.5685425 591.5598,78 574.995202,78 L49.2547976,78 C32.6836055,78 19.25,64.5721855 19.25,48 C19.25,31.4314575 32.6901997,18 49.2547976,18 L574.995202,18 Z" id="Combined-Shape" fill="#F6F9FC" opacity="0.835389459"></path>
                <g id="Lines" transform="translate(253.000000, 84.000000)" stroke="#8ADAF8" stroke-linecap="round" stroke-width="5">
                    <path d="M28,41 L14.824187,30.1770107 M7.33750937,24.0272398 L0,18" id="Line" opacity="0.642723881"></path>
                    <line x1="43" y1="11" x2="46" y2="22" id="Line" opacity="0.561159049"></line>
                    <line x1="80" y1="0" x2="77" y2="33" id="Line" opacity="0.847306437"></line>
                    <line x1="119" y1="21" x2="106" y2="37" id="Line" opacity="0.681669776"></line>
                </g>
                <g id="Illustration-Phone-2" transform="translate(430.000000, 269.500000) scale(-1, 1) rotate(-360.000000) translate(-430.000000, -269.500000) translate(317.000000, 156.000000)">
                    <path d="M215.650686,70.0068358 C215.650686,70.0068358 219.358375,50.7345439 212.821461,41.110728 C206.284547,31.486912 171.951764,16.7092248 171.951764,16.7092248" id="Path-5" stroke="#6E7585" stroke-width="7.2" stroke-linecap="round" stroke-linejoin="round" transform="translate(194.324884, 43.358030) rotate(76.000000) translate(-194.324884, -43.358030) "></path>
                    <path d="M54.3779792,20.3788299 C54.3779792,13.7470575 59.5859996,7.05377515 66.0501472,5.60097741 C66.0501472,5.60097741 84.4545216,-1.36347751e-11 114.531064,-1.36424205e-11 C144.607606,-1.36484977e-11 163.011981,5.60097741 163.011981,5.60097741 C169.458341,7.13078752 174.684149,13.7413664 174.684149,20.3788299 L174.684149,207.729384 C174.684149,214.361157 169.398512,220.739013 162.874613,221.836551 C162.874613,221.836551 144.607606,226.015478 114.531064,226.015478 C84.4545216,226.015478 66.1875153,221.836551 66.1875153,221.836551 C59.6652886,220.677151 54.3779792,214.366848 54.3779792,207.729384 L54.3779792,20.3788299 Z" id="Rectangle-9" fill="#F6F9FC"></path>
                    <path d="M143.360335,1.80747317 C155.925235,3.44427791 163.030798,5.54232049 163.030798,5.54232049 C169.466766,7.10452592 174.684149,13.7413664 174.684149,20.3788299 L174.684149,207.729384 C174.684149,214.361157 169.398512,220.739013 162.874613,221.836551 C162.874613,221.836551 144.607606,226.015478 114.531064,226.015478 C84.4545216,226.015478 66.1875153,221.836551 66.1875153,221.836551 C59.6652886,220.677151 54.3779792,214.358955 54.3779792,207.738545 L54.3779792,166.932506 L54.3779792,166.932506 M54.3779792,150.388731 L54.3779792,137.515728 M54.3779792,126.616545 L54.3779792,20.373405 C54.3779792,13.7446287 59.5859996,7.05377515 66.0501472,5.60097741 C66.0501472,5.60097741 84.4545216,-1.36347751e-11 114.531064,-1.36424205e-11 C119.293639,-1.36433828e-11 123.763542,0.140440244 127.914045,0.376843737" id="Rectangle-9" stroke="#7C8495" stroke-width="4.8" stroke-linecap="round" stroke-linejoin="round"></path>
                    <path d="M128.093754,191.085813 L70.4820061,191.085813 C67.8348001,191.085813 65.6888156,188.935954 65.6888156,186.284386 L65.6888156,29.4576611 L65.6888156,29.4576611 C65.6888156,26.8059061 67.8429412,24.656234 70.4830645,24.656234 L158.579064,24.656234 C161.226854,24.656234 163.373312,26.8060939 163.373312,29.4576611 L163.373312,186.284386 C163.373312,188.936141 161.226329,191.085813 158.563886,191.085813 L145.426461,191.085813" id="Rectangle-9" stroke="#7C8495" stroke-width="4.8" fill="#FFFFFF" stroke-linecap="round" stroke-linejoin="round"></path>
                    <path d="M129.738339,123.00857 L123.153032,141.74616 L116.567724,123.00857 C116.553516,122.958887 116.532204,122.909204 116.503789,122.838228 C116.461165,122.753058 116.446958,122.71757 116.418542,122.646594 C116.304879,122.433666 116.162803,122.242033 115.992308,122.071691 C115.807606,121.887153 115.601596,121.738105 115.37427,121.624544 C115.289023,121.560665 115.253504,121.553568 115.182465,121.539373 C115.125633,121.510982 115.08301,121.48969 115.054595,121.475495 C114.898309,121.418714 114.841478,121.404519 114.798855,121.390324 C114.642569,121.354836 114.592842,121.347738 114.564426,121.347738 C114.401036,121.333543 114.35131,121.326446 114.308686,121.326446 L114.074258,121.326446 C113.89666,121.340641 113.51305,121.418714 113.456219,121.432909 C113.335453,121.475495 113.29283,121.48969 113.221791,121.51808 C113.12944,121.560665 113.108129,121.57486 113.051297,121.603251 C112.809764,121.731008 112.596649,121.887153 112.411947,122.071691 C112.241453,122.242033 112.099376,122.440763 111.985713,122.667887 C111.957298,122.724668 111.850739,122.958887 111.836532,122.987277 L105.251224,141.74616 L98.6659159,123.00857 C98.4243824,122.35559 97.9910493,121.87296 97.3659037,121.560665 C96.740758,121.262566 96.1014142,121.227078 95.4478528,121.454202 C94.7942915,121.69552 94.3183355,122.128468 94.0199705,122.753058 C93.7216056,123.377647 93.6860865,124.016422 93.9134122,124.669402 L102.864316,150.156783 C102.914043,150.277443 102.956666,150.383905 103.013498,150.497467 C103.112953,150.660711 103.176887,150.752979 103.247926,150.83815 C103.340277,150.965907 103.411315,151.04398 103.482355,151.114956 C103.610225,151.228517 103.695471,151.299492 103.780718,151.370468 C103.9299,151.469834 104.015146,151.519517 104.100393,151.562103 C104.242472,151.625981 104.334821,151.661469 104.420068,151.689859 C104.526627,151.739542 104.626081,151.760835 104.739744,151.77503 C104.974173,151.824713 105.109145,151.838908 105.251224,151.838908 C105.379094,151.838908 105.506963,151.824713 105.634834,151.796323 C105.855055,151.760835 105.954509,151.739542 106.039756,151.711152 C106.153418,151.661469 106.238664,151.625981 106.338119,151.583395 C106.46599,151.519517 106.551236,151.469834 106.636483,151.413054 C106.799873,151.299492 106.885119,151.228517 106.956158,151.157541 C107.06982,151.04398 107.140859,150.973005 107.211898,150.902028 C107.311353,150.752979 107.368183,150.660711 107.425015,150.561345 C107.524469,150.383905 107.574196,150.277443 107.61682,150.178076 C107.61682,150.163881 114.202128,131.419193 114.202128,131.419193 L120.787436,150.156783 C120.830059,150.277443 120.879786,150.383905 120.936617,150.497467 C121.036072,150.660711 121.092903,150.752979 121.149734,150.83815 C121.249189,150.965907 121.313123,151.04398 121.384162,151.114956 C121.519137,151.228517 121.604383,151.299492 121.703838,151.370468 C121.831708,151.469834 121.916954,151.519517 122.002201,151.562103 C122.151383,151.625981 122.236629,151.661469 122.321876,151.689859 C122.435539,151.739542 122.527888,151.760835 122.641551,151.77503 C122.890188,151.824713 123.025161,151.838908 123.153032,151.838908 C123.280902,151.838908 123.415875,151.824713 123.557953,151.796323 C123.778175,151.760835 123.877628,151.739542 123.962875,151.711152 C124.069434,151.661469 124.161784,151.625981 124.261239,151.583395 C124.389109,151.519517 124.474355,151.469834 124.559602,151.413054 C124.708784,151.299492 124.79403,151.228517 124.879277,151.157541 C124.99294,151.04398 125.056874,150.973005 125.113706,150.902028 C125.227368,150.752979 125.291303,150.660711 125.348134,150.561345 C125.447589,150.383905 125.490212,150.277443 125.518628,150.178076 L134.490843,124.669402 C134.718169,124.016422 134.68265,123.377647 134.384285,122.753058 C134.08592,122.128468 133.609964,121.69552 132.956402,121.454202 C132.288633,121.227078 131.642186,121.262566 131.01704,121.560665 C130.391894,121.87296 129.965665,122.35559 129.738339,123.00857 Z" id="W" stroke="#15B4F1" stroke-width="3.6" fill="#15B4F1" opacity="0.5"></path>
                    <path d="M93.7305705,59.1028189 C93.7305705,59.1028189 94.154987,54.7738315 97.6153719,54.0498406 C101.075757,53.3258497 102.984891,57.5346381 102.984891,57.5346381" id="Path-8" stroke="#7C8495" stroke-width="4.8" stroke-linecap="round" stroke-linejoin="round" transform="translate(98.357731, 56.534461) rotate(7.000000) translate(-98.357731, -56.534461) "></path>
                    <path d="M125.606564,59.1028189 C125.606564,59.1028189 126.030981,54.7738315 129.491366,54.0498406 C132.951751,53.3258497 134.860885,57.5346381 134.860885,57.5346381" id="Path-8" stroke="#7C8495" stroke-width="4.8" stroke-linecap="round" stroke-linejoin="round" transform="translate(130.233725, 56.534461) rotate(7.000000) translate(-130.233725, -56.534461) "></path>
                    <path d="M99.621325,13.7387072 C99.621325,12.3922738 100.700233,11.1643507 102.036319,11.0118676 C102.036319,11.0118676 107.076195,10.2734308 114.531064,10.2734308 C121.985933,10.2734308 127.025809,11.0118676 127.025809,11.0118676 C128.359573,11.1714262 129.440803,12.3804631 129.440803,13.7387072 L129.440803,12.972213 C129.440803,14.3186463 128.361895,15.273723 127.025809,15.12124 C127.025809,15.12124 121.985933,14.3828032 114.531064,14.3828032 C107.076195,14.3828032 102.036319,15.12124 102.036319,15.12124 C100.702555,15.2807985 99.621325,14.330457 99.621325,12.972213 L99.621325,13.7387072 Z" id="Rectangle-10" fill="#E1EBF7"></path>
                    <path d="M19.2652689,138.134674 C19.2652689,138.134674 34.4262367,127.997224 34.4262367,110.29918 C34.4262367,92.6011356 22.4860785,62.986526 22.4860785,62.986526" id="Path-5" stroke="#6E7585" stroke-width="7.2" stroke-linecap="round" stroke-linejoin="round" transform="translate(26.845753, 100.560600) rotate(-148.000000) translate(-26.845753, -100.560600) "></path>
                    <ellipse id="Oval" fill="#E1EBF7" cx="115.045193" cy="208.550646" rx="9.25432075" ry="9.24608775"></ellipse>
                    <path d="M103.1069,84.0609106 C101.803423,86.9003494 105.849929,89.0881124 110.915764,88.4988025 C115.981599,87.9094925 119.736436,83.1833357 118.499381,81.0714287 C117.262326,78.9595217 104.410377,81.2214717 103.1069,84.0609106 Z" id="Path-10" fill="#7C8495" transform="translate(110.798536, 84.418881) rotate(17.000000) translate(-110.798536, -84.418881) "></path>
                </g>
                <g id="Illustration-Phone-1" transform="translate(210.000000, 269.500000) rotate(-360.000000) translate(-210.000000, -269.500000) translate(97.000000, 156.000000)">
                    <path d="M215.650686,70.0068358 C215.650686,70.0068358 219.358375,50.7345439 212.821461,41.110728 C206.284547,31.486912 171.951764,16.7092248 171.951764,16.7092248" id="Path-5" stroke="#6E7585" stroke-width="7.2" stroke-linecap="round" stroke-linejoin="round" transform="translate(194.324884, 43.358030) rotate(76.000000) translate(-194.324884, -43.358030) "></path>
                    <path d="M54.3779792,20.3788299 C54.3779792,13.7470575 59.5859996,7.05377515 66.0501472,5.60097741 C66.0501472,5.60097741 84.4545216,-7.88162414e-13 114.531064,-7.95807864e-13 C144.607606,-8.01885017e-13 163.011981,5.60097741 163.011981,5.60097741 C169.458341,7.13078752 174.684149,13.7413664 174.684149,20.3788299 L174.684149,207.729384 C174.684149,214.361157 169.398512,220.739013 162.874613,221.836551 C162.874613,221.836551 144.607606,226.015478 114.531064,226.015478 C84.4545216,226.015478 66.1875153,221.836551 66.1875153,221.836551 C59.6652886,220.677151 54.3779792,214.366848 54.3779792,207.729384 L54.3779792,20.3788299 Z" id="Rectangle-9" fill="#F6F9FC"></path>
                    <path d="M174.684149,157.965663 L174.684149,207.735505 C174.684149,214.363897 169.398512,220.739013 162.874613,221.836551 C162.874613,221.836551 144.607606,226.015478 114.531064,226.015478 C111.079899,226.015478 107.784227,225.960456 104.653803,225.863038 M91.854058,225.191496 C75.5303636,223.973907 66.1663469,221.870093 66.1663469,221.870093 C59.6558112,220.692168 54.3779792,214.366807 54.3779792,207.73872 L54.3779792,145.506616 L54.3779792,173.89901 M54.3779792,148.431349 L54.3779792,135.14656 M54.3779792,120.268188 L54.3779792,20.3724525 C54.3779792,13.7442022 59.5859996,7.05377515 66.0501472,5.60097741 C66.0501472,5.60097741 84.4545216,-7.88162414e-13 114.531064,-7.95807864e-13 C144.607606,-8.01885017e-13 163.011981,5.60097741 163.011981,5.60097741 C169.458341,7.13078752 174.684149,13.7459703 174.684149,20.3755923 L174.684149,142.316443" id="Rectangle-9" stroke="#7C8495" stroke-width="4.8" stroke-linecap="round" stroke-linejoin="round"></path>
                    <path d="M96.2007173,24.656234 L158.569382,24.656234 C161.22252,24.656234 163.373312,26.8060939 163.373312,29.4576611 L163.373312,186.284386 C163.373312,188.936141 161.219187,191.085813 158.579064,191.085813 L70.4830645,191.085813 C67.835274,191.085813 65.6888156,188.935954 65.6888156,186.284386 L65.6888156,29.4576611 L65.6888156,29.4576611 C65.6888156,26.8059061 67.8358854,24.656234 70.4806571,24.656234 L83.0567559,24.656234" id="Rectangle-9" stroke="#7C8495" stroke-width="4.8" fill="#FFFFFF" stroke-linecap="round" stroke-linejoin="round"></path>
                    <path d="M129.738339,123.00857 L123.153032,141.74616 L116.567724,123.00857 C116.553516,122.958887 116.532204,122.909204 116.503789,122.838228 C116.461165,122.753058 116.446958,122.71757 116.418542,122.646594 C116.304879,122.433666 116.162803,122.242033 115.992308,122.071691 C115.807606,121.887153 115.601596,121.738105 115.37427,121.624544 C115.289023,121.560665 115.253504,121.553568 115.182465,121.539373 C115.125633,121.510982 115.08301,121.48969 115.054595,121.475495 C114.898309,121.418714 114.841478,121.404519 114.798855,121.390324 C114.642569,121.354836 114.592842,121.347738 114.564426,121.347738 C114.401036,121.333543 114.35131,121.326446 114.308686,121.326446 L114.074258,121.326446 C113.89666,121.340641 113.51305,121.418714 113.456219,121.432909 C113.335453,121.475495 113.29283,121.48969 113.221791,121.51808 C113.12944,121.560665 113.108129,121.57486 113.051297,121.603251 C112.809764,121.731008 112.596649,121.887153 112.411947,122.071691 C112.241453,122.242033 112.099376,122.440763 111.985713,122.667887 C111.957298,122.724668 111.850739,122.958887 111.836532,122.987277 L105.251224,141.74616 L98.6659159,123.00857 C98.4243824,122.35559 97.9910493,121.87296 97.3659037,121.560665 C96.740758,121.262566 96.1014142,121.227078 95.4478528,121.454202 C94.7942915,121.69552 94.3183355,122.128468 94.0199705,122.753058 C93.7216056,123.377647 93.6860865,124.016422 93.9134122,124.669402 L102.864316,150.156783 C102.914043,150.277443 102.956666,150.383905 103.013498,150.497467 C103.112953,150.660711 103.176887,150.752979 103.247926,150.83815 C103.340277,150.965907 103.411315,151.04398 103.482355,151.114956 C103.610225,151.228517 103.695471,151.299492 103.780718,151.370468 C103.9299,151.469834 104.015146,151.519517 104.100393,151.562103 C104.242472,151.625981 104.334821,151.661469 104.420068,151.689859 C104.526627,151.739542 104.626081,151.760835 104.739744,151.77503 C104.974173,151.824713 105.109145,151.838908 105.251224,151.838908 C105.379094,151.838908 105.506963,151.824713 105.634834,151.796323 C105.855055,151.760835 105.954509,151.739542 106.039756,151.711152 C106.153418,151.661469 106.238664,151.625981 106.338119,151.583395 C106.46599,151.519517 106.551236,151.469834 106.636483,151.413054 C106.799873,151.299492 106.885119,151.228517 106.956158,151.157541 C107.06982,151.04398 107.140859,150.973005 107.211898,150.902028 C107.311353,150.752979 107.368183,150.660711 107.425015,150.561345 C107.524469,150.383905 107.574196,150.277443 107.61682,150.178076 C107.61682,150.163881 114.202128,131.419193 114.202128,131.419193 L120.787436,150.156783 C120.830059,150.277443 120.879786,150.383905 120.936617,150.497467 C121.036072,150.660711 121.092903,150.752979 121.149734,150.83815 C121.249189,150.965907 121.313123,151.04398 121.384162,151.114956 C121.519137,151.228517 121.604383,151.299492 121.703838,151.370468 C121.831708,151.469834 121.916954,151.519517 122.002201,151.562103 C122.151383,151.625981 122.236629,151.661469 122.321876,151.689859 C122.435539,151.739542 122.527888,151.760835 122.641551,151.77503 C122.890188,151.824713 123.025161,151.838908 123.153032,151.838908 C123.280902,151.838908 123.415875,151.824713 123.557953,151.796323 C123.778175,151.760835 123.877628,151.739542 123.962875,151.711152 C124.069434,151.661469 124.161784,151.625981 124.261239,151.583395 C124.389109,151.519517 124.474355,151.469834 124.559602,151.413054 C124.708784,151.299492 124.79403,151.228517 124.879277,151.157541 C124.99294,151.04398 125.056874,150.973005 125.113706,150.902028 C125.227368,150.752979 125.291303,150.660711 125.348134,150.561345 C125.447589,150.383905 125.490212,150.277443 125.518628,150.178076 L134.490843,124.669402 C134.718169,124.016422 134.68265,123.377647 134.384285,122.753058 C134.08592,122.128468 133.609964,121.69552 132.956402,121.454202 C132.288633,121.227078 131.642186,121.262566 131.01704,121.560665 C130.391894,121.87296 129.965665,122.35559 129.738339,123.00857 Z" id="W" stroke="#15B4F1" stroke-width="3.6" fill="#15B4F1" opacity="0.5"></path>
                    <path d="M93.7305705,59.1028189 C93.7305705,59.1028189 94.154987,54.7738315 97.6153719,54.0498406 C101.075757,53.3258497 102.984891,57.5346381 102.984891,57.5346381" id="Path-8" stroke="#7C8495" stroke-width="4.8" stroke-linecap="round" stroke-linejoin="round" transform="translate(98.357731, 56.534461) rotate(7.000000) translate(-98.357731, -56.534461) "></path>
                    <path d="M125.606564,59.1028189 C125.606564,59.1028189 126.030981,54.7738315 129.491366,54.0498406 C132.951751,53.3258497 134.860885,57.5346381 134.860885,57.5346381" id="Path-8" stroke="#7C8495" stroke-width="4.8" stroke-linecap="round" stroke-linejoin="round" transform="translate(130.233725, 56.534461) rotate(7.000000) translate(-130.233725, -56.534461) "></path>
                    <path d="M99.621325,13.7387072 C99.621325,12.3922738 100.700233,11.1643507 102.036319,11.0118676 C102.036319,11.0118676 107.076195,10.2734308 114.531064,10.2734308 C121.985933,10.2734308 127.025809,11.0118676 127.025809,11.0118676 C128.359573,11.1714262 129.440803,12.3804631 129.440803,13.7387072 L129.440803,12.972213 C129.440803,14.3186463 128.361895,15.273723 127.025809,15.12124 C127.025809,15.12124 121.985933,14.3828032 114.531064,14.3828032 C107.076195,14.3828032 102.036319,15.12124 102.036319,15.12124 C100.702555,15.2807985 99.621325,14.330457 99.621325,12.972213 L99.621325,13.7387072 Z" id="Rectangle-10" fill="#E1EBF7"></path>
                    <path d="M19.2652689,138.134674 C19.2652689,138.134674 34.4262367,127.997224 34.4262367,110.29918 C34.4262367,92.6011356 22.4860785,62.986526 22.4860785,62.986526" id="Path-5" stroke="#6E7585" stroke-width="7.2" stroke-linecap="round" stroke-linejoin="round" transform="translate(26.845753, 100.560600) rotate(-148.000000) translate(-26.845753, -100.560600) "></path>
                    <ellipse id="Oval" fill="#E1EBF7" cx="115.045193" cy="208.550646" rx="9.25432075" ry="9.24608775"></ellipse>
                    <path d="M106.1069,84.0609106 C104.803423,86.9003494 108.849929,89.0881124 113.915764,88.4988025 C118.981599,87.9094925 122.736436,83.1833357 121.499381,81.0714287 C120.262326,78.9595217 107.410377,81.2214717 106.1069,84.0609106 Z" id="Path-10" fill="#7C8495" transform="translate(113.798536, 84.418881) rotate(19.000000) translate(-113.798536, -84.418881) "></path>
                </g>
                <g id="Additional-Elements" transform="translate(72.000000, 0.000000)">
                    <circle id="Oval-18" fill="#8ADAF8" opacity="0.508570429" cx="221" cy="84" r="3"></circle>
                    <circle id="Oval-18" fill="#8ADAF8" opacity="0.615263526" cx="281" cy="128" r="3"></circle>
                    <circle id="Oval-11" fill="#48D2A0" opacity="0.451142724" cx="40" cy="83" r="7"></circle>
                    <circle id="Oval-11" fill="#48D2A0" opacity="0.493703358" cx="61.5" cy="46.5" r="4.5"></circle>
                    <g id="Group-23" opacity="0.424032183" transform="translate(136.093267, 13.910254) rotate(-153.000000) translate(-136.093267, -13.910254) translate(126.093267, 3.410254)" stroke="#48D2A0" stroke-linecap="round" stroke-width="7">
                        <line x1="2.52420307e-12" y1="10.3253866" x2="19.7389208" y2="10.3253866" id="Line"></line>
                        <g id="Group-22" transform="translate(9.760346, 10.456494) rotate(-270.000000) translate(-9.760346, -10.456494) translate(-0.239654, 7.456494)">
                            <line x1="-1.79412041e-13" y1="2.89110824" x2="19.7389208" y2="2.89110824" id="Line"></line>
                        </g>
                    </g>
                    <g id="Group-23" opacity="0.409048507" transform="translate(520.026279, 312.026279) rotate(-285.000000) translate(-520.026279, -312.026279) translate(509.026279, 301.026279)" stroke="#48D2A0" stroke-linecap="round" stroke-width="6">
                        <line x1="1.8189894e-12" y1="10.9700958" x2="21.9401915" y2="10.9700958" id="Line"></line>
                        <g id="Group-22" transform="translate(10.712620, 11.000000) rotate(-270.000000) translate(-10.712620, -11.000000) translate(-0.287380, 8.000000)">
                            <line x1="1.15285559e-12" y1="2.74252394" x2="21.9401915" y2="2.74252394" id="Line"></line>
                        </g>
                    </g>
                    <circle id="Oval-11" fill="#48D2A0" opacity="0.253206623" cx="41.5" cy="437.5" r="7.5"></circle>
                    <path d="M4.5,410 C6.98528137,410 9,407.985281 9,405.5 C9,403.014719 6.98528137,401 4.5,401 C2.01471863,401 0,403.014719 0,405.5 C0,407.985281 2.01471863,410 4.5,410 Z" id="Oval-11" fill="#48D2A0" opacity="0.212278451"></path>
                    <circle id="Oval-11" fill="#48D2A0" opacity="0.149778451" cx="391.5" cy="45.5" r="7.5"></circle>
                    <circle id="Oval-11" fill="#48D2A0" opacity="0.304046175" cx="421.5" cy="76.5" r="4.5"></circle>
                    <circle id="Oval-11" fill="#48D2A0" opacity="0.157532649" cx="542" cy="258" r="7"></circle>
                    <g id="Group-23" opacity="0.452250466" transform="translate(490.314996, 58.668549) rotate(-40.000000) translate(-490.314996, -58.668549) translate(482.814996, 50.668549)" stroke="#48D2A0" stroke-linecap="round" stroke-width="6">
                        <line x1="1.8189894e-12" y1="7.37881805" x2="14.4038414" y2="7.37881805" id="Line"></line>
                        <g id="Group-22" transform="translate(7.056035, 7.684219) rotate(-270.000000) translate(-7.056035, -7.684219) translate(-0.443965, 5.684219)">
                            <line x1="2.10498285e-13" y1="1.84470451" x2="14.4038414" y2="1.84470451" id="Line"></line>
                        </g>
                    </g>
                </g>
            </g>
        </g>
    </g>
</svg>